<?xml version="1.0" encoding="utf-8"?>
<svg version="1.1" xmlns:xlink="http://www.w3.org/1999/xlink" width="382px" height="131px" xmlns="http://www.w3.org/2000/svg">
  <g transform="matrix(1 0 0 1 -17 -724 )">
    <path d="M 17 724  L 399 724  L 399 855  L 17 855  L 17 724  " fill-rule="nonzero" fill="#cccccc" stroke="none" />
    <path d="M 26 733  L 390 733  L 390 846  L 26 846  L 26 733  " fill-rule="nonzero" fill="#ffffff" stroke="none" />
    <path d="M 225.465 763.3  C 219.963 763.3  215.64 758.977  215.64 753.475  C 215.64 747.973  219.963 743.65  225.465 743.65  C 230.967 743.65  235.29 747.973  235.29 753.475  C 235.29 758.977  230.967 763.3  225.465 763.3  " fill-rule="nonzero" fill="#cccccc" stroke="none" />
    <path d="M 30 843  L 30 784.7  L 119.25 758.2  L 244.2 821.189528795812  L 315.6 774.1  L 387 821.189528795812  L 387 843  L 30 843  " fill-rule="nonzero" fill="#169bd5" stroke="none" />
  </g>
</svg>