<?xml version="1.0" encoding="utf-8"?>
<svg version="1.1" xmlns:xlink="http://www.w3.org/1999/xlink" width="22px" height="22px" xmlns="http://www.w3.org/2000/svg">
  <defs>
    <filter x="311px" y="230px" width="22px" height="22px" filterUnits="userSpaceOnUse" id="filter73">
      <feOffset dx="1" dy="1" in="SourceAlpha" result="shadowOffsetInner" />
      <feGaussianBlur stdDeviation="2.5" in="shadowOffsetInner" result="shadowGaussian" />
      <feComposite in2="shadowGaussian" operator="atop" in="SourceAlpha" result="shadowComposite" />
      <feColorMatrix type="matrix" values="0 0 0 0 0  0 0 0 0 0  0 0 0 0 0  0 0 0 0.698039215686274 0  " in="shadowComposite" />
    </filter>
    <g id="widget74">
      <path d="M 321 234  C 324.36 234  327 236.64  327 240  C 327 243.36  324.36 246  321 246  C 317.64 246  315 243.36  315 240  C 315 236.64  317.64 234  321 234  Z " fill-rule="nonzero" fill="#aaaaaa" stroke="none" />
      <path d="M 321 234.5  C 324.08 234.5  326.5 236.92  326.5 240  C 326.5 243.08  324.08 245.5  321 245.5  C 317.92 245.5  315.5 243.08  315.5 240  C 315.5 236.92  317.92 234.5  321 234.5  Z " stroke-width="1" stroke="#ffffff" fill="none" />
    </g>
  </defs>
  <g transform="matrix(1 0 0 1 -311 -230 )">
    <use xlink:href="#widget74" filter="url(#filter73)" />
    <use xlink:href="#widget74" />
  </g>
</svg>