<?xml version="1.0" encoding="utf-8"?>
<svg version="1.1" xmlns:xlink="http://www.w3.org/1999/xlink" width="187px" height="95px" xmlns="http://www.w3.org/2000/svg">
  <g transform="matrix(1 0 0 1 -198 -1066 )">
    <path d="M 198 1066  L 385 1066  L 385 1161  L 198 1161  L 198 1066  " fill-rule="nonzero" fill="#cccccc" stroke="none" />
    <path d="M 205 1073  L 378 1073  L 378 1154  L 205 1154  L 205 1073  " fill-rule="nonzero" fill="#ffffff" stroke="none" />
    <path d="M 302.365 1094.5  C 298.375 1094.5  295.24 1091.365  295.24 1087.375  C 295.24 1083.385  298.375 1080.25  302.365 1080.25  C 306.355 1080.25  309.49 1083.385  309.49 1087.375  C 309.49 1091.365  306.355 1094.5  302.365 1094.5  " fill-rule="nonzero" fill="#cccccc" stroke="none" />
    <path d="M 208 1152  L 208 1110.2  L 250 1091.2  L 308.8 1128.83422459893  L 342.4 1102.6  L 376 1128.83422459893  L 376 1152  L 208 1152  " fill-rule="nonzero" fill="#169bd5" stroke="none" />
  </g>
</svg>