<?xml version="1.0" encoding="utf-8"?>
<svg version="1.1" xmlns:xlink="http://www.w3.org/1999/xlink" width="167px" height="110px" xmlns="http://www.w3.org/2000/svg">
  <g transform="matrix(1 0 0 1 -26 -438 )">
    <path d="M 26 438  L 193 438  L 193 548  L 26 548  L 26 438  " fill-rule="nonzero" fill="#cccccc" stroke="none" />
    <path d="M 34 446  L 185 446  L 185 540  L 34 540  L 34 446  " fill-rule="nonzero" fill="#ffffff" stroke="none" />
    <path d="M 121.09 471  C 116.47 471  112.84 467.37  112.84 462.75  C 112.84 458.13  116.47 454.5  121.09 454.5  C 125.71 454.5  129.34 458.13  129.34 462.75  C 129.34 467.37  125.71 471  121.09 471  " fill-rule="nonzero" fill="#cccccc" stroke="none" />
    <path d="M 37 537  L 37 488.6  L 73.25 466.6  L 124 502.221556886228  L 153 479.8  L 182 502.221556886228  L 182 537  L 37 537  " fill-rule="nonzero" fill="#169bd5" stroke="none" />
  </g>
</svg>