<?xml version="1.0" encoding="utf-8"?>
<svg version="1.1" xmlns:xlink="http://www.w3.org/1999/xlink" width="30px" height="30px" xmlns="http://www.w3.org/2000/svg">
  <defs>
    <filter x="19px" y="93px" width="30px" height="30px" filterUnits="userSpaceOnUse" id="filter45">
      <feOffset dx="1" dy="1" in="SourceAlpha" result="shadowOffsetInner" />
      <feGaussianBlur stdDeviation="2.5" in="shadowOffsetInner" result="shadowGaussian" />
      <feComposite in2="shadowGaussian" operator="atop" in="SourceAlpha" result="shadowComposite" />
      <feColorMatrix type="matrix" values="0 0 0 0 0  0 0 0 0 0  0 0 0 0 0  0 0 0 0.698039215686274 0  " in="shadowComposite" />
    </filter>
    <g id="widget46">
      <path d="M 33 97  C 38.6 97  43 101.4  43 107  C 43 112.6  38.6 117  33 117  C 27.4 117  23 112.6  23 107  C 23 101.4  27.4 97  33 97  Z " fill-rule="nonzero" fill="#ec808d" stroke="none" />
      <path d="M 33 97.5  C 38.32 97.5  42.5 101.68  42.5 107  C 42.5 112.32  38.32 116.5  33 116.5  C 27.68 116.5  23.5 112.32  23.5 107  C 23.5 101.68  27.68 97.5  33 97.5  Z " stroke-width="1" stroke="#ffffff" fill="none" />
    </g>
  </defs>
  <g transform="matrix(1 0 0 1 -19 -93 )">
    <use xlink:href="#widget46" filter="url(#filter45)" />
    <use xlink:href="#widget46" />
  </g>
</svg>