<?xml version="1.0" encoding="utf-8"?>
<svg version="1.1" xmlns:xlink="http://www.w3.org/1999/xlink" width="412px" height="170px" xmlns="http://www.w3.org/2000/svg">
  <g transform="matrix(1 0 0 1 0 -79 )">
    <path d="M 0 79  L 412 79  L 412 249  L 0 249  L 0 79  " fill-rule="nonzero" fill="#cccccc" stroke="none" />
    <path d="M 12 91  L 400 91  L 400 237  L 12 237  L 12 91  " fill-rule="nonzero" fill="#ffffff" stroke="none" />
    <path d="M 226.99 130  C 219.85 130  214.24 124.39  214.24 117.25  C 214.24 110.11  219.85 104.5  226.99 104.5  C 234.13 104.5  239.74 110.11  239.74 117.25  C 239.74 124.39  234.13 130  226.99 130  " fill-rule="nonzero" fill="#cccccc" stroke="none" />
    <path d="M 17 233  L 17 157.65  L 111.75 123.4  L 244.4 199.082524271845  L 320.2 143.95  L 396 199.082524271845  L 396 233  L 17 233  " fill-rule="nonzero" fill="#169bd5" stroke="none" />
  </g>
</svg>