<?xml version="1.0" encoding="utf-8"?>
<svg version="1.1" xmlns:xlink="http://www.w3.org/1999/xlink" width="40px" height="40px" xmlns="http://www.w3.org/2000/svg">
  <defs>
    <filter x="352px" y="266px" width="40px" height="40px" filterUnits="userSpaceOnUse" id="filter49">
      <feOffset dx="1" dy="1" in="SourceAlpha" result="shadowOffsetInner" />
      <feGaussianBlur stdDeviation="2.5" in="shadowOffsetInner" result="shadowGaussian" />
      <feComposite in2="shadowGaussian" operator="atop" in="SourceAlpha" result="shadowComposite" />
      <feColorMatrix type="matrix" values="0 0 0 0 0  0 0 0 0 0  0 0 0 0 0  0 0 0 0.698039215686274 0  " in="shadowComposite" />
    </filter>
    <g id="widget50">
      <path d="M 371 270  C 379.4 270  386 276.6  386 285  C 386 293.4  379.4 300  371 300  C 362.6 300  356 293.4  356 285  C 356 276.6  362.6 270  371 270  Z " fill-rule="nonzero" fill="#009dd9" stroke="none" />
      <path d="M 371 270.5  C 379.12 270.5  385.5 276.88  385.5 285  C 385.5 293.12  379.12 299.5  371 299.5  C 362.88 299.5  356.5 293.12  356.5 285  C 356.5 276.88  362.88 270.5  371 270.5  Z " stroke-width="1" stroke="#ffffff" fill="none" />
    </g>
  </defs>
  <g transform="matrix(1 0 0 1 -352 -266 )">
    <use xlink:href="#widget50" filter="url(#filter49)" />
    <use xlink:href="#widget50" />
  </g>
</svg>