<?xml version="1.0" encoding="utf-8"?>
<svg version="1.1" xmlns:xlink="http://www.w3.org/1999/xlink" width="40px" height="40px" xmlns="http://www.w3.org/2000/svg">
  <defs>
    <filter x="319px" y="92px" width="40px" height="40px" filterUnits="userSpaceOnUse" id="filter51">
      <feOffset dx="1" dy="1" in="SourceAlpha" result="shadowOffsetInner" />
      <feGaussianBlur stdDeviation="2.5" in="shadowOffsetInner" result="shadowGaussian" />
      <feComposite in2="shadowGaussian" operator="atop" in="SourceAlpha" result="shadowComposite" />
      <feColorMatrix type="matrix" values="0 0 0 0 0  0 0 0 0 0  0 0 0 0 0  0 0 0 0.698039215686274 0  " in="shadowComposite" />
    </filter>
    <g id="widget52">
      <path d="M 338 96  C 346.4 96  353 102.6  353 111  C 353 119.4  346.4 126  338 126  C 329.6 126  323 119.4  323 111  C 323 102.6  329.6 96  338 96  Z " fill-rule="nonzero" fill="#b9646e" stroke="none" fill-opacity="0.996078431372549" />
      <path d="M 338 96.5  C 346.12 96.5  352.5 102.88  352.5 111  C 352.5 119.12  346.12 125.5  338 125.5  C 329.88 125.5  323.5 119.12  323.5 111  C 323.5 102.88  329.88 96.5  338 96.5  Z " stroke-width="1" stroke="#ffffff" fill="none" />
    </g>
  </defs>
  <g transform="matrix(1 0 0 1 -319 -92 )">
    <use xlink:href="#widget52" filter="url(#filter51)" />
    <use xlink:href="#widget52" />
  </g>
</svg>