<?xml version="1.0" encoding="utf-8"?>
<svg version="1.1" xmlns:xlink="http://www.w3.org/1999/xlink" width="30px" height="30px" xmlns="http://www.w3.org/2000/svg">
  <defs>
    <filter x="316px" y="830px" width="30px" height="30px" filterUnits="userSpaceOnUse" id="filter71">
      <feOffset dx="1" dy="1" in="SourceAlpha" result="shadowOffsetInner" />
      <feGaussianBlur stdDeviation="2.5" in="shadowOffsetInner" result="shadowGaussian" />
      <feComposite in2="shadowGaussian" operator="atop" in="SourceAlpha" result="shadowComposite" />
      <feColorMatrix type="matrix" values="0 0 0 0 0  0 0 0 0 0  0 0 0 0 0  0 0 0 0.698039215686274 0  " in="shadowComposite" />
    </filter>
    <g id="widget72">
      <path d="M 330 834  C 335.6 834  340 838.4  340 844  C 340 849.6  335.6 854  330 854  C 324.4 854  320 849.6  320 844  C 320 838.4  324.4 834  330 834  Z " fill-rule="nonzero" fill="#d9001b" stroke="none" fill-opacity="0.874509803921569" />
      <path d="M 330 834.5  C 335.32 834.5  339.5 838.68  339.5 844  C 339.5 849.32  335.32 853.5  330 853.5  C 324.68 853.5  320.5 849.32  320.5 844  C 320.5 838.68  324.68 834.5  330 834.5  Z " stroke-width="1" stroke="#ffffff" fill="none" />
    </g>
  </defs>
  <g transform="matrix(1 0 0 1 -316 -830 )">
    <use xlink:href="#widget72" filter="url(#filter71)" />
    <use xlink:href="#widget72" />
  </g>
</svg>