<?xml version="1.0" encoding="utf-8"?>
<svg version="1.1" xmlns:xlink="http://www.w3.org/1999/xlink" width="206px" height="170px" xmlns="http://www.w3.org/2000/svg">
  <g transform="matrix(1 0 0 1 -206 -211 )">
    <path d="M 206 211  L 412 211  L 412 381  L 206 381  L 206 211  " fill-rule="nonzero" fill="#cccccc" stroke="none" />
    <path d="M 218 223  L 400 223  L 400 369  L 218 369  L 218 223  " fill-rule="nonzero" fill="#ffffff" stroke="none" />
    <path d="M 325.87 262  C 318.73 262  313.12 256.39  313.12 249.25  C 313.12 242.11  318.73 236.5  325.87 236.5  C 333.01 236.5  338.62 242.11  338.62 249.25  C 338.62 256.39  333.01 262  325.87 262  " fill-rule="nonzero" fill="#cccccc" stroke="none" />
    <path d="M 223 365  L 223 289.65  L 266.25 255.4  L 326.8 297.165048543689  L 361.4 275.95  L 396 297.165048543689  L 396 365  L 223 365  " fill-rule="nonzero" fill="#169bd5" stroke="none" />
  </g>
</svg>