<?xml version="1.0" encoding="utf-8"?>
<svg version="1.1" xmlns:xlink="http://www.w3.org/1999/xlink" width="22px" height="22px" xmlns="http://www.w3.org/2000/svg">
  <defs>
    <filter x="128px" y="36px" width="22px" height="22px" filterUnits="userSpaceOnUse" id="filter69">
      <feOffset dx="1" dy="1" in="SourceAlpha" result="shadowOffsetInner" />
      <feGaussianBlur stdDeviation="2.5" in="shadowOffsetInner" result="shadowGaussian" />
      <feComposite in2="shadowGaussian" operator="atop" in="SourceAlpha" result="shadowComposite" />
      <feColorMatrix type="matrix" values="0 0 0 0 0  0 0 0 0 0  0 0 0 0 0  0 0 0 0.698039215686274 0  " in="shadowComposite" />
    </filter>
    <g id="widget70">
      <path d="M 138 40  C 141.36 40  144 42.64  144 46  C 144 49.36  141.36 52  138 52  C 134.64 52  132 49.36  132 46  C 132 42.64  134.64 40  138 40  Z " fill-rule="nonzero" fill="#95f204" stroke="none" />
      <path d="M 138 40.5  C 141.08 40.5  143.5 42.92  143.5 46  C 143.5 49.08  141.08 51.5  138 51.5  C 134.92 51.5  132.5 49.08  132.5 46  C 132.5 42.92  134.92 40.5  138 40.5  Z " stroke-width="1" stroke="#ffffff" fill="none" />
    </g>
  </defs>
  <g transform="matrix(1 0 0 1 -128 -36 )">
    <use xlink:href="#widget70" filter="url(#filter69)" />
    <use xlink:href="#widget70" />
  </g>
</svg>