<?xml version="1.0" encoding="utf-8"?>
<svg version="1.1" xmlns:xlink="http://www.w3.org/1999/xlink" width="383px" height="181px" xmlns="http://www.w3.org/2000/svg">
  <g transform="matrix(1 0 0 1 -11 -46 )">
    <path d="M 11 46  L 394 46  L 394 227  L 11 227  L 11 46  " fill-rule="nonzero" fill="#cccccc" stroke="none" />
    <path d="M 24 59  L 381 59  L 381 214  L 24 214  L 24 59  " fill-rule="nonzero" fill="#ffffff" stroke="none" />
    <path d="M 223.735 100.3  C 216.133 100.3  210.16 94.327  210.16 86.725  C 210.16 79.123  216.133 73.15  223.735 73.15  C 231.337 73.15  237.31 79.123  237.31 86.725  C 237.31 94.327  231.337 100.3  223.735 100.3  " fill-rule="nonzero" fill="#cccccc" stroke="none" />
    <path d="M 29 210  L 29 129.7  L 116 93.2  L 237.8 168.601566579634  L 307.4 115.1  L 377 168.601566579634  L 377 210  L 29 210  " fill-rule="nonzero" fill="#169bd5" stroke="none" />
  </g>
</svg>