<?xml version="1.0" encoding="utf-8"?>
<svg version="1.1" xmlns:xlink="http://www.w3.org/1999/xlink" width="50px" height="50px" xmlns="http://www.w3.org/2000/svg">
  <g transform="matrix(1 0 0 1 -51 -247 )">
    <path d="M 76 247  C 90 247  101 258  101 272  C 101 286  90 297  76 297  C 62 297  51 286  51 272  C 51 258  62 247  76 247  Z " fill-rule="nonzero" fill="#ffffff" stroke="none" />
    <path d="M 76 247.5  C 89.72 247.5  100.5 258.28  100.5 272  C 100.5 285.72  89.72 296.5  76 296.5  C 62.28 296.5  51.5 285.72  51.5 272  C 51.5 258.28  62.28 247.5  76 247.5  Z " stroke-width="1" stroke="#797979" fill="none" />
  </g>
</svg>