<?xml version="1.0" encoding="utf-8"?>
<svg version="1.1" xmlns:xlink="http://www.w3.org/1999/xlink" width="412px" height="869px" xmlns="http://www.w3.org/2000/svg">
  <g>
    <path d="M 0 0  L 412 0  L 412 869  L 0 869  L 0 0  " fill-rule="nonzero" fill="#cccccc" stroke="none" />
    <path d="M 29 29  L 383 29  L 383 840  L 29 840  L 29 29  " fill-rule="nonzero" fill="#ffffff" stroke="none" />
    <path d="M 245.14 192.15  C 227.836 192.15  214.24 178.554  214.24 161.25  C 214.24 143.946  227.836 130.35  245.14 130.35  C 262.444 130.35  276.04 143.946  276.04 161.25  C 276.04 178.554  262.444 192.15  245.14 192.15  " fill-rule="nonzero" fill="#cccccc" stroke="none" />
    <path d="M 40 830  L 40 395.5  L 123.25 198  L 239.8 356  L 306.4 316.5  L 373 356  L 373 830  L 40 830  " fill-rule="nonzero" fill="#169bd5" stroke="none" />
  </g>
</svg>