<?xml version="1.0" encoding="utf-8"?>
<svg version="1.1" xmlns:xlink="http://www.w3.org/1999/xlink" width="45px" height="22px" xmlns="http://www.w3.org/2000/svg">
  <g transform="matrix(1 0 0 1 -360 -16 )">
    <path d="M 361 21  A 4 4 0 0 1 365 17 L 400 17  A 4 4 0 0 1 404 21 L 404 33  A 4 4 0 0 1 400 37 L 365 37  A 4 4 0 0 1 361 33 L 361 21  Z " fill-rule="nonzero" fill="#ffffff" stroke="none" />
    <path d="M 360.5 21  A 4.5 4.5 0 0 1 365 16.5 L 400 16.5  A 4.5 4.5 0 0 1 404.5 21 L 404.5 33  A 4.5 4.5 0 0 1 400 37.5 L 365 37.5  A 4.5 4.5 0 0 1 360.5 33 L 360.5 21  Z " stroke-width="1" stroke="#797979" fill="none" stroke-opacity="0.00392156862745098" />
  </g>
</svg>