<?xml version="1.0" encoding="utf-8"?>
<svg version="1.1" xmlns:xlink="http://www.w3.org/1999/xlink" width="196px" height="99px" xmlns="http://www.w3.org/2000/svg">
  <g transform="matrix(1 0 0 1 -17 -38 )">
    <path d="M 17 38  L 213 38  L 213 137  L 17 137  L 17 38  " fill-rule="nonzero" fill="#cccccc" stroke="none" />
    <path d="M 24 45  L 206 45  L 206 130  L 24 130  L 24 45  " fill-rule="nonzero" fill="#ffffff" stroke="none" />
    <path d="M 126.345 67.7  C 122.187 67.7  118.92 64.433  118.92 60.275  C 118.92 56.117  122.187 52.85  126.345 52.85  C 130.503 52.85  133.77 56.117  133.77 60.275  C 133.77 64.433  130.503 67.7  126.345 67.7  " fill-rule="nonzero" fill="#cccccc" stroke="none" />
    <path d="M 27 128  L 27 84  L 71.25 64  L 133.2 103.755102040816  L 168.6 76  L 204 103.755102040816  L 204 128  L 27 128  " fill-rule="nonzero" fill="#169bd5" stroke="none" />
  </g>
</svg>