<?xml version="1.0" encoding="utf-8"?>
<svg version="1.1" xmlns:xlink="http://www.w3.org/1999/xlink" width="28px" height="28px" xmlns="http://www.w3.org/2000/svg">
  <defs>
    <filter x="344px" y="343px" width="28px" height="28px" filterUnits="userSpaceOnUse" id="filter47">
      <feOffset dx="1" dy="1" in="SourceAlpha" result="shadowOffsetInner" />
      <feGaussianBlur stdDeviation="2.5" in="shadowOffsetInner" result="shadowGaussian" />
      <feComposite in2="shadowGaussian" operator="atop" in="SourceAlpha" result="shadowComposite" />
      <feColorMatrix type="matrix" values="0 0 0 0 0  0 0 0 0 0  0 0 0 0 0  0 0 0 0.698039215686274 0  " in="shadowComposite" />
    </filter>
    <g id="widget48">
      <path d="M 357 347  C 362.04 347  366 350.96  366 356  C 366 361.04  362.04 365  357 365  C 351.96 365  348 361.04  348 356  C 348 350.96  351.96 347  357 347  Z " fill-rule="nonzero" fill="#009dd9" stroke="none" />
      <path d="M 357 347.5  C 361.76 347.5  365.5 351.24  365.5 356  C 365.5 360.76  361.76 364.5  357 364.5  C 352.24 364.5  348.5 360.76  348.5 356  C 348.5 351.24  352.24 347.5  357 347.5  Z " stroke-width="1" stroke="#ffffff" fill="none" />
    </g>
  </defs>
  <g transform="matrix(1 0 0 1 -344 -343 )">
    <use xlink:href="#widget48" filter="url(#filter47)" />
    <use xlink:href="#widget48" />
  </g>
</svg>