<?xml version="1.0" encoding="utf-8"?>
<svg version="1.1" xmlns:xlink="http://www.w3.org/1999/xlink" width="30px" height="30px" xmlns="http://www.w3.org/2000/svg">
  <defs>
    <filter x="258px" y="94px" width="30px" height="30px" filterUnits="userSpaceOnUse" id="filter42">
      <feOffset dx="1" dy="1" in="SourceAlpha" result="shadowOffsetInner" />
      <feGaussianBlur stdDeviation="2.5" in="shadowOffsetInner" result="shadowGaussian" />
      <feComposite in2="shadowGaussian" operator="atop" in="SourceAlpha" result="shadowComposite" />
      <feColorMatrix type="matrix" values="0 0 0 0 0  0 0 0 0 0  0 0 0 0 0  0 0 0 0.698039215686274 0  " in="shadowComposite" />
    </filter>
    <g id="widget43">
      <path d="M 272 98  C 277.6 98  282 102.4  282 108  C 282 113.6  277.6 118  272 118  C 266.4 118  262 113.6  262 108  C 262 102.4  266.4 98  272 98  Z " fill-rule="nonzero" fill="#02a7f0" stroke="none" />
      <path d="M 272 98.5  C 277.32 98.5  281.5 102.68  281.5 108  C 281.5 113.32  277.32 117.5  272 117.5  C 266.68 117.5  262.5 113.32  262.5 108  C 262.5 102.68  266.68 98.5  272 98.5  Z " stroke-width="1" stroke="#ffffff" fill="none" />
    </g>
  </defs>
  <g transform="matrix(1 0 0 1 -258 -94 )">
    <use xlink:href="#widget43" filter="url(#filter42)" />
    <use xlink:href="#widget43" />
  </g>
</svg>