<?xml version="1.0" encoding="utf-8"?>
<svg version="1.1" xmlns:xlink="http://www.w3.org/1999/xlink" width="190px" height="170px" xmlns="http://www.w3.org/2000/svg">
  <g transform="matrix(1 0 0 1 0 -1172 )">
    <path d="M 0 1172  L 190 1172  L 190 1342  L 0 1342  L 0 1172  " fill-rule="nonzero" fill="#cccccc" stroke="none" />
    <path d="M 12 1184  L 178 1184  L 178 1330  L 12 1330  L 12 1184  " fill-rule="nonzero" fill="#ffffff" stroke="none" />
    <path d="M 111.55 1223  C 104.41 1223  98.8 1217.39  98.8 1210.25  C 98.8 1203.11  104.41 1197.5  111.55 1197.5  C 118.69 1197.5  124.3 1203.11  124.3 1210.25  C 124.3 1217.39  118.69 1223  111.55 1223  " fill-rule="nonzero" fill="#cccccc" stroke="none" />
    <path d="M 17 1326  L 17 1250.65  L 56.25 1216.4  L 111.2 1252.45263157895  L 142.6 1236.95  L 174 1252.45263157895  L 174 1326  L 17 1326  " fill-rule="nonzero" fill="#169bd5" stroke="none" />
  </g>
</svg>